<mxfile host="65bd71144e">
    <diagram id="wchiuT_AfNnw1r3C1ELz" name="Page-1">
        <mxGraphModel dx="1363" dy="1298" grid="1" gridSize="10" guides="1" tooltips="1" connect="1" arrows="1" fold="1" page="1" pageScale="1" pageWidth="850" pageHeight="1100" math="0" shadow="0">
            <root>
                <mxCell id="0"/>
                <mxCell id="1" parent="0"/>
                <mxCell id="3" value="" style="strokeWidth=1;shadow=0;dashed=0;align=center;html=1;shape=mxgraph.mockup.containers.browserWindow;rSize=0;strokeColor=#666666;strokeColor2=#008cff;strokeColor3=#c4c4c4;mainText=,;recursiveResize=0;" parent="1" vertex="1">
                    <mxGeometry x="260" y="230" width="1060" height="710" as="geometry"/>
                </mxCell>
                <mxCell id="4" value="Page 1" style="strokeWidth=1;shadow=0;dashed=0;align=center;html=1;shape=mxgraph.mockup.containers.anchor;fontSize=17;fontColor=#666666;align=left;" parent="3" vertex="1">
                    <mxGeometry x="60" y="12" width="110" height="26" as="geometry"/>
                </mxCell>
                <mxCell id="5" value="https://www.draw.io" style="strokeWidth=1;shadow=0;dashed=0;align=center;html=1;shape=mxgraph.mockup.containers.anchor;rSize=0;fontSize=17;fontColor=#666666;align=left;" parent="3" vertex="1">
                    <mxGeometry x="130" y="60" width="250" height="26" as="geometry"/>
                </mxCell>
                <mxCell id="6" value="Logo" style="rounded=1;whiteSpace=wrap;html=1;" parent="3" vertex="1">
                    <mxGeometry x="40" y="130" width="100" height="40" as="geometry"/>
                </mxCell>
                <mxCell id="9" value="" style="strokeWidth=1;shadow=0;dashed=0;align=center;html=1;shape=mxgraph.mockup.text.rrect;rSize=0;strokeColor=#666666;container=0;" parent="3" vertex="1">
                    <mxGeometry x="160" y="130" width="390" height="40" as="geometry"/>
                </mxCell>
                <mxCell id="14" value="" style="group" parent="3" vertex="1" connectable="0">
                    <mxGeometry x="160" y="130" width="390" height="40" as="geometry"/>
                </mxCell>
                <mxCell id="10" value="Phòng ban" style="strokeWidth=1;shadow=0;dashed=0;align=center;html=1;shape=mxgraph.mockup.text.rrect;rSize=0;fontSize=17;fillColor=#1ba1e2;fontColor=#ffffff;strokeColor=#006EAF;" parent="14" vertex="1">
                    <mxGeometry x="130" width="130" height="40" as="geometry"/>
                </mxCell>
                <mxCell id="11" value="Bảng lương" style="strokeWidth=1;shadow=0;dashed=0;align=center;html=1;shape=mxgraph.mockup.text.rrect;rSize=0;fontSize=17;" parent="14" vertex="1">
                    <mxGeometry x="260" width="130" height="40" as="geometry"/>
                </mxCell>
                <mxCell id="13" value="Nhân viên" style="strokeWidth=1;shadow=0;dashed=0;align=center;html=1;shape=mxgraph.mockup.text.rrect;rSize=0;fontSize=17;fontColor=#ffffff;fillColor=none;strokeColor=#008cff;" parent="14" vertex="1">
                    <mxGeometry width="130" height="40" as="geometry"/>
                </mxCell>
                <mxCell id="131" value="" style="group" vertex="1" connectable="0" parent="3">
                    <mxGeometry x="45" y="240" width="195" height="100" as="geometry"/>
                </mxCell>
                <mxCell id="127" value="" style="rounded=1;whiteSpace=wrap;html=1;fillColor=default;" vertex="1" parent="131">
                    <mxGeometry width="195" height="100" as="geometry"/>
                </mxCell>
                <mxCell id="129" value="Sale" style="text;html=1;strokeColor=none;fillColor=none;align=center;verticalAlign=middle;whiteSpace=wrap;rounded=0;" vertex="1" parent="131">
                    <mxGeometry x="15" y="10" width="60" height="30" as="geometry"/>
                </mxCell>
                <mxCell id="130" value="Số lượng nhân viên: 1" style="text;html=1;strokeColor=none;fillColor=none;align=center;verticalAlign=middle;whiteSpace=wrap;rounded=0;" vertex="1" parent="131">
                    <mxGeometry x="15" y="50" width="150" height="30" as="geometry"/>
                </mxCell>
                <mxCell id="132" value="" style="group" vertex="1" connectable="0" parent="3">
                    <mxGeometry x="290" y="240" width="195" height="100" as="geometry"/>
                </mxCell>
                <mxCell id="133" value="" style="rounded=1;whiteSpace=wrap;html=1;fillColor=default;" vertex="1" parent="132">
                    <mxGeometry width="195" height="100" as="geometry"/>
                </mxCell>
                <mxCell id="134" value="IT" style="text;html=1;strokeColor=none;fillColor=none;align=center;verticalAlign=middle;whiteSpace=wrap;rounded=0;" vertex="1" parent="132">
                    <mxGeometry x="15" y="10" width="60" height="30" as="geometry"/>
                </mxCell>
                <mxCell id="135" value="Số lượng nhân viên: 1" style="text;html=1;strokeColor=none;fillColor=none;align=center;verticalAlign=middle;whiteSpace=wrap;rounded=0;" vertex="1" parent="132">
                    <mxGeometry x="15" y="50" width="150" height="30" as="geometry"/>
                </mxCell>
                <mxCell id="137" value="" style="group" vertex="1" connectable="0" parent="3">
                    <mxGeometry x="550" y="240" width="195" height="100" as="geometry"/>
                </mxCell>
                <mxCell id="167" value="" style="group" vertex="1" connectable="0" parent="137">
                    <mxGeometry width="195" height="100" as="geometry"/>
                </mxCell>
                <mxCell id="138" value="" style="rounded=1;whiteSpace=wrap;html=1;fillColor=default;" vertex="1" parent="167">
                    <mxGeometry width="195" height="100" as="geometry"/>
                </mxCell>
                <mxCell id="139" value="HR" style="text;html=1;strokeColor=none;fillColor=none;align=center;verticalAlign=middle;whiteSpace=wrap;rounded=0;" vertex="1" parent="167">
                    <mxGeometry x="15" y="10" width="60" height="30" as="geometry"/>
                </mxCell>
                <mxCell id="140" value="Số lượng nhân viên: 1" style="text;html=1;strokeColor=none;fillColor=none;align=center;verticalAlign=middle;whiteSpace=wrap;rounded=0;" vertex="1" parent="167">
                    <mxGeometry x="15" y="50" width="150" height="30" as="geometry"/>
                </mxCell>
                <mxCell id="168" value="" style="group" vertex="1" connectable="0" parent="3">
                    <mxGeometry x="45" y="400" width="195" height="100" as="geometry"/>
                </mxCell>
                <mxCell id="169" value="" style="rounded=1;whiteSpace=wrap;html=1;fillColor=default;" vertex="1" parent="168">
                    <mxGeometry width="195" height="100" as="geometry"/>
                </mxCell>
                <mxCell id="170" value="Marketing" style="text;html=1;strokeColor=none;fillColor=none;align=center;verticalAlign=middle;whiteSpace=wrap;rounded=0;" vertex="1" parent="168">
                    <mxGeometry x="15" y="10" width="60" height="30" as="geometry"/>
                </mxCell>
                <mxCell id="171" value="Số lượng nhân viên: 1" style="text;html=1;strokeColor=none;fillColor=none;align=center;verticalAlign=middle;whiteSpace=wrap;rounded=0;" vertex="1" parent="168">
                    <mxGeometry x="15" y="50" width="150" height="30" as="geometry"/>
                </mxCell>
                <mxCell id="172" value="" style="group" vertex="1" connectable="0" parent="3">
                    <mxGeometry x="300" y="400" width="195" height="100" as="geometry"/>
                </mxCell>
                <mxCell id="173" value="" style="rounded=1;whiteSpace=wrap;html=1;fillColor=default;" vertex="1" parent="172">
                    <mxGeometry width="195" height="100" as="geometry"/>
                </mxCell>
                <mxCell id="174" value="Finance" style="text;html=1;strokeColor=none;fillColor=none;align=center;verticalAlign=middle;whiteSpace=wrap;rounded=0;" vertex="1" parent="172">
                    <mxGeometry x="15" y="10" width="60" height="30" as="geometry"/>
                </mxCell>
                <mxCell id="175" value="Số lượng nhân viên: 1" style="text;html=1;strokeColor=none;fillColor=none;align=center;verticalAlign=middle;whiteSpace=wrap;rounded=0;" vertex="1" parent="172">
                    <mxGeometry x="15" y="50" width="150" height="30" as="geometry"/>
                </mxCell>
            </root>
        </mxGraphModel>
    </diagram>
</mxfile>